<?xml version="1.0" encoding="UTF-8"?>
<svg width="24px" height="24px" viewBox="0 0 24 24" version="1.1" xmlns="http://www.w3.org/2000/svg" xmlns:xlink="http://www.w3.org/1999/xlink">
    <!-- Generator: Sketch 59.1 (86144) - https://sketch.com -->
    <title>Icons/banque/ic_a_propos</title>
    <desc>Created with Sketch.</desc>
    <g id="Icons/banque/ic_a_propos" stroke="none" stroke-width="1" fill="none" fill-rule="evenodd">
        <path d="M12.550713,1 C18.8739382,1.00141175 24,6.12747353 24,12.4506987 C24,18.7753357 18.8739382,23.9013975 12.550713,23.9013975 C10.3992071,23.9013975 8.39311127,23.2816395 6.6764241,22.2524743 L6.6764241,22.2524743 L0.903781129,23.9310442 C0.644019254,24.0072787 0.367316387,23.9296325 0.185200725,23.729164 C0.00308506269,23.5301074 -0.0491496621,23.2477575 0.0482610409,22.9950544 L0.0482610409,22.9950544 L2.23929599,17.4045271 C1.51648033,15.9038376 1.10001428,14.2266794 1.10001428,12.4506987 C1.10001428,6.12747353 6.22607606,1.00141175 12.550713,1 Z M12.550713,2.41174932 C9.7766256,2.41316107 7.27077056,3.53550178 5.45102569,5.35242315 C3.63410431,7.17075628 2.5117636,9.67661132 2.5117636,12.4506987 C2.5117636,14.1080924 2.91270041,15.6666637 3.61998682,17.0431193 L3.61998682,17.0431193 L3.60163408,17.0530015 C3.69904478,17.2337054 3.74139726,17.4412326 3.6651628,17.6388775 L3.6651628,17.6388775 L1.88635866,22.174828 L6.56066065,20.8153135 C6.75689381,20.7574317 6.96724446,20.7884902 7.13947787,20.8986067 C8.70228437,21.9009487 10.5587347,22.4896481 12.550713,22.4896481 C15.3233887,22.4896481 17.8292437,21.3673074 19.6475768,19.5489743 C21.46591,17.7306412 22.5882507,15.2247861 22.5882507,12.4506987 C22.5882507,9.67661132 21.46591,7.17075628 19.6475768,5.35242315 C17.8292437,3.53550178 15.3233887,2.41316107 12.550713,2.41174932 Z M12.3756561,10.8648807 C12.7540049,10.8662925 13.1055305,10.9919382 13.3878804,11.2135828 L13.3878804,11.2135828 L13.4019979,11.2248768 L13.4175271,11.2375825 C13.6857595,11.4691094 13.8424636,11.831929 13.8382284,12.1848663 L13.8382284,12.1848663 L13.8382284,12.2032191 L13.8396401,12.5660387 L13.8368166,12.5970971 C13.8198757,12.7707423 13.7859937,12.9457992 13.7337589,13.1208561 L13.7337589,13.1208561 L13.7351707,13.1208561 L13.2791757,14.7443679 C13.2396467,14.884131 13.2071765,15.0281295 13.1888237,15.1438929 L13.1888237,15.1438929 L13.1860002,15.1622457 L13.181765,15.1820101 L13.1450595,15.4544778 L13.1436477,15.509536 L13.1351772,15.560359 L13.1337655,15.5900057 L13.2339997,15.8328266 L14.3718696,16.9692848 L12.7892987,17.052578 L12.4900078,17.069519 L12.4900078,17.0681072 L12.3813031,17.0723425 C11.9973073,17.0709307 11.6344877,16.9466968 11.3380204,16.7151699 L11.3380204,16.7151699 L11.3323734,16.7123464 L11.3224911,16.7010524 C11.0429647,16.472349 10.8777901,16.1081177 10.8820253,15.7481216 L10.8820253,15.7481216 L10.8862606,15.6845929 L10.8848488,15.6845929 L10.8848488,15.6831812 L10.8862606,15.6732989 L10.9102603,15.3316556 L10.9116721,15.3133028 C10.9314365,15.1580104 10.9639068,15.0041297 10.9992005,14.8516608 L10.9992005,14.8516608 L11.0034358,14.8333081 L11.4679013,13.1942671 C11.5116655,13.0333277 11.548371,12.8879175 11.5667237,12.7792128 L11.5667237,12.7792128 L11.5695472,12.7693306 L11.6062527,12.4827454 L11.6062527,12.4389812 L11.6090762,12.4079227 L11.6118997,12.3542763 L11.520136,12.0973379 L11.5017833,12.0789851 L10.472618,10.9919382 L11.9676605,10.8888805 L12.2401282,10.8705277 Z M13.3623277,7.88806611 C13.68703,7.87959561 14.0216146,8.03629978 14.22773,8.23676819 L14.22773,8.23676819 C14.2319653,8.23535644 14.233377,8.23817994 14.2347888,8.24100344 C14.2376123,8.24382693 14.2418475,8.24523868 14.244671,8.24665043 L14.244671,8.24665043 C14.4790214,8.46829508 14.6131376,8.78735042 14.6103141,9.09793527 L14.6103141,9.09793527 L14.6103141,9.25463945 L14.5425501,9.39722613 L14.329376,9.85463291 L14.2319653,9.94639661 C13.9990266,10.1722765 13.6602068,10.2993339 13.338328,10.2950987 L13.338328,10.2950987 L13.31574,10.2950987 C12.9938611,10.2993339 12.6705705,10.158159 12.4432789,9.94780836 L12.4432789,9.94780836 L12.4404554,9.95063186 L12.4348084,9.94216137 C12.4319849,9.93933787 12.4277497,9.93792612 12.4249262,9.93651437 L12.4249262,9.93651437 C12.1905758,9.72192847 12.0494008,9.40287313 12.0550478,9.09228828 L12.0550478,9.09228828 L12.0691653,8.9468781 L12.0875181,8.86076139 L12.1242235,8.78311517 L12.3416329,8.32712014 L12.4362201,8.23676819 C12.673394,8.01230005 12.9896259,7.88665436 13.3143282,7.88806611 L13.3143282,7.88806611 Z" id="ic_a_propos" fill="white"></path>
    </g>
</svg>
