<?xml version="1.0" encoding="UTF-8"?>
<svg width="24px" height="24px" viewBox="0 0 24 24" version="1.1" xmlns="http://www.w3.org/2000/svg" xmlns:xlink="http://www.w3.org/1999/xlink">
    <!-- Generator: Sketch 59.1 (86144) - https://sketch.com -->
    <title>Icons/documents/ic_document</title>
    <desc>Created with Sketch.</desc>
    <g id="Icons/documents/ic_document" stroke="none" stroke-width="1" fill="none" fill-rule="evenodd">
        <path d="M14.6788571,0 C14.7542857,0 14.8297143,0.016 14.8982857,0.0445714286 C14.952,0.0674285714 14.9965714,0.102857143 15.0411429,0.139428571 C15.0537143,0.149714286 15.0697143,0.155428571 15.0822857,0.166857143 L15.0822857,0.166857143 L21.1405714,6.22514286 L21.1405714,6.22514286 L21.1508571,6.24 C21.1977143,6.28914286 21.2365714,6.34514286 21.2628571,6.408 C21.2925714,6.47657143 21.3085714,6.552 21.3085714,6.62857143 L21.3085714,6.62857143 L21.3085714,21.8331429 C21.3074286,23.0297143 20.3382857,24 19.1417143,24 L19.1417143,24 L5.16571429,24 C3.97028571,24 3,23.0297143 3,21.8331429 L3,21.8331429 L3,2.16685714 C3,0.969142857 3.97028571,0 5.16571429,0 L5.16571429,0 Z M14.1074286,1.14285714 L5.16571429,1.14285714 C4.60114286,1.144 4.144,1.60114286 4.14285714,2.16685714 L4.14285714,2.16685714 L4.14285714,21.8331429 C4.144,22.3988571 4.60114286,22.856 5.16571429,22.8571429 L5.16571429,22.8571429 L19.1417143,22.8571429 C19.7062857,22.856 20.1645714,22.3988571 20.1657143,21.8331429 L20.1657143,21.8331429 L20.1657143,7.2 L15.5234286,7.2 C14.7405714,7.2 14.1074286,6.568 14.1074286,5.78514286 L14.1074286,5.78514286 L14.1074286,1.14285714 Z M16.4754286,17.0981714 C16.7908571,17.0981714 17.0468571,17.3541714 17.0468571,17.6696 C17.0468571,17.9850286 16.7908571,18.2410286 16.4754286,18.2410286 L16.4754286,18.2410286 L7.83314286,18.2410286 C7.51771429,18.2410286 7.26171429,17.9850286 7.26171429,17.6696 C7.26171429,17.3541714 7.51771429,17.0981714 7.83314286,17.0981714 L7.83314286,17.0981714 Z M16.4754286,13.7326857 C16.7908571,13.7326857 17.0468571,13.9886857 17.0468571,14.3041143 C17.0468571,14.6195429 16.7908571,14.8755429 16.4754286,14.8755429 L16.4754286,14.8755429 L7.83314286,14.8755429 C7.51771429,14.8755429 7.26171429,14.6195429 7.26171429,14.3041143 C7.26171429,13.9886857 7.51771429,13.7326857 7.83314286,13.7326857 L7.83314286,13.7326857 Z M12.1537143,10.3677714 C12.4702857,10.3677714 12.7251429,10.6237714 12.7251429,10.9392 C12.7251429,11.2546286 12.4702857,11.5106286 12.1537143,11.5106286 L12.1537143,11.5106286 L7.83371429,11.5106286 C7.51828571,11.5106286 7.26228571,11.2546286 7.26228571,10.9392 C7.26228571,10.6237714 7.51828571,10.3677714 7.83371429,10.3677714 L7.83371429,10.3677714 Z M15.2502857,1.95085714 L15.2502857,5.78514286 C15.2502857,5.93485714 15.3714286,6.05714286 15.5234286,6.05714286 L15.5234286,6.05714286 L19.3554286,6.05714286 L15.2502857,1.95085714 Z" id="ic_document" fill="#FFFFFF"></path>
    </g>
</svg>
