<svg xmlns="http://www.w3.org/2000/svg" width="280.082" height="186.97" viewBox="0 0 280.082 186.97">
  <g id="Groupe_215" data-name="Groupe 215" transform="translate(18639.883 9233.123)">
    <g id="Groupe_214" data-name="Groupe 214" transform="translate(-18501.508 -9183.614)">
      <path id="Tracé_255" data-name="Tracé 255" d="M192.186,72.9l-71.829-1.125L85.934,134.828l30.793,52.835,106.252-61.929Z" transform="translate(-82.49 -50.914)" fill="#f5f5fa"/>
      <path id="Tracé_257" data-name="Tracé 257" d="M143.222,75.173l-8.305-14.248-11.225,6.543,4.147,7.115Z" transform="translate(-56.998 -58.24)" fill="#f3f4f4"/>
      <path id="Tracé_258" data-name="Tracé 258" d="M142.063,70.548l-15.384-.591-1.31-2.249,15.384.59Z" transform="translate(-55.865 -53.66)" fill="#b9bbbc"/>
      <path id="Tracé_259" data-name="Tracé 259" d="M122.23,68.877a1.262,1.262,0,0,0,1.73.441l13.133-7.654a1.265,1.265,0,0,0,.469-1.724h0a1.263,1.263,0,0,0-1.73-.442L122.7,67.153a1.264,1.264,0,0,0-.469,1.724Z" transform="translate(-58.098 -59.322)" fill="#707375"/>
      <rect id="Rectangle_154" data-name="Rectangle 154" width="2.667" height="61.152" transform="translate(3.432 83.922) rotate(-30.262)" fill="#e6e8e5"/>
      <rect id="Rectangle_155" data-name="Rectangle 155" width="2.667" height="61.152" transform="translate(108.561 22.647) rotate(-30.198)" fill="#e6e8e5"/>
      <path id="Tracé_260" data-name="Tracé 260" d="M178.095,128.453a.714.714,0,0,1-.268.973L153.2,143.784a.716.716,0,0,1-.98-.248L125,96.841a.715.715,0,0,1,.265-.975L149.9,81.51a.715.715,0,0,1,.978.248Z" transform="translate(-56.177 -44.409)" fill="#084348"/>
      <rect id="Rectangle_156" data-name="Rectangle 156" width="25.066" height="50.789" transform="translate(71.927 52.902) rotate(-30.237)" fill="#0d6d73"/>
      <path id="Tracé_262" data-name="Tracé 262" d="M153.573,93.343l.044.077.016-.111Z" transform="translate(-36.823 -36.376)" fill="#3c3c37"/>
      <path id="Tracé_263" data-name="Tracé 263" d="M139.79,128.73a.545.545,0,0,1-.2.742l-21.966,12.8a.545.545,0,0,1-.745-.189l-15.966-27.4a.545.545,0,0,1,.2-.744l21.965-12.8a.542.542,0,0,1,.745.189Z" transform="translate(-72.428 -31.137)" fill="#433f39"/>
      <path id="Tracé_264" data-name="Tracé 264" d="M110.771,123.929l.049.083.02-.123Z" transform="translate(-65.721 -15.729)" fill="#3c3c37"/>
      <rect id="Rectangle_157" data-name="Rectangle 157" width="10.612" height="13.163" transform="translate(30.703 83.829) rotate(-30.245)" fill="#70a2d2"/>
      <rect id="Rectangle_158" data-name="Rectangle 158" width="10.61" height="13.164" transform="matrix(0.864, -0.504, 0.504, 0.864, 41.536, 77.514)" fill="#70a2d2"/>
      <rect id="Rectangle_159" data-name="Rectangle 159" width="10.61" height="13.16" transform="translate(38.318 96.891) rotate(-30.238)" fill="#70a2d2"/>
      <rect id="Rectangle_160" data-name="Rectangle 160" width="10.61" height="13.162" transform="matrix(0.864, -0.504, 0.504, 0.864, 49.15, 90.576)" fill="#70a2d2"/>
      <path id="Tracé_265" data-name="Tracé 265" d="M108.686,107.741l9.145-5.33Zm9.145-5.33.017.025,0-.037Z" transform="translate(-67.129 -30.239)" fill="#3c3c37"/>
      <path id="Tracé_268" data-name="Tracé 268" d="M165.875,123.619l-13.733,8.007a1.128,1.128,0,0,1-1.541-.394L130.3,96.4a1.128,1.128,0,0,1,.417-1.534l13.735-8a1.122,1.122,0,0,1,1.541.39l20.3,34.83A1.123,1.123,0,0,1,165.875,123.619ZM131.128,95.57a.307.307,0,0,0-.114.415l20.3,34.83a.306.306,0,0,0,.417.107l13.733-8.007a.3.3,0,0,0,.114-.414L145.28,87.67a.307.307,0,0,0-.419-.1Z" transform="translate(-52.636 -40.834)" fill="#084348"/>
      <path id="Tracé_269" data-name="Tracé 269" d="M147.488,97.495a.976.976,0,1,1-1.327-.34.97.97,0,0,1,1.327.34" transform="translate(-42.157 -33.87)" fill="#2a2b2b"/>
      <path id="Tracé_270" data-name="Tracé 270" d="M147.6,97.618a.461.461,0,0,1-.173.625l-2.573,1.5a.456.456,0,0,1-.623-.159.451.451,0,0,1,.168-.623l2.573-1.5a.457.457,0,0,1,.628.159" transform="translate(-43.175 -33.617)" fill="#2a2b2b"/>
      <path id="Tracé_271" data-name="Tracé 271" d="M192.747,71.046l-72.052-2.963a3.834,3.834,0,0,0-3.525,2.055L84.236,134.29a3.413,3.413,0,0,0,1.6,4.613,3.542,3.542,0,0,0,4.677-1.653l31.935-62.107,69.782,2.819a3.544,3.544,0,0,0,3.746-3.251A3.417,3.417,0,0,0,192.747,71.046Z" transform="translate(-83.878 -53.412)" fill="#e4604a"/>
      <path id="Tracé_272" data-name="Tracé 272" d="M123.148,70.071l-3.645-.214-1.62,3.3L84.649,137.467a3.782,3.782,0,0,0,.553.333,3.55,3.55,0,0,0,4.679-1.653l31.991-62.222,69.859,2.828a3.548,3.548,0,0,0,3.746-3.253,3.621,3.621,0,0,0-.017-.648Z" transform="translate(-83.358 -52.21)" fill="#e44d20"/>
    </g>
    <line id="Ligne_23" data-name="Ligne 23" y1="63.205" x2="107.05" transform="translate(-18467.271 -9110.07)" fill="none" stroke="#d0d2d3" stroke-width="1.657"/>
    <path id="Tracé_284" data-name="Tracé 284" d="M113.533,56.445a39.312,39.312,0,0,0-57.994,49.992c.01.013,0,.025.008.03a4.385,4.385,0,0,1-.173,4.342l0,0c-.045.075-.072.161-.124.238l.154-.209-.025-.022.027.023-.151.206a.255.255,0,0,0-.032.052.244.244,0,0,1,.027-.05l-.09.124.01-.008-.007.007L2.624,183.234a21.525,21.525,0,0,0-.3,7.55l.156.114.648.476,1.059.777v-.005L6.73,194l.65.472.757.553,4.054-1.091,3.762-1.01.874-.235.809-.218,3.117-.839c2.087-.539,3.933-1.01,5.061-1.3l1.161-.295-.37-2.357,0-.017.544-.08,2.183-.342v0l-.005-.027-.425-2.7.27-.044,2.741-.429,2.937-4.025-.833-5.315.585.228-.645-.61-.04-.258,0,0h0l-.007.007.008-.013v.005l.348-.482h0l2.945-.457,3.007-.469h0l0,0,.951-1.3v0h0l-.181-.367-1.746-3.56,5.888-8.066.005-.008,5.895-1.521,9-12.341-1.921-3.925.757-1.035,5.126-.471,1.357-1.851,3.479-.794,3.987-.913v0h0l4.474-6.156,1.22-1.679.007.007a.634.634,0,0,1,.054-.121l.005-.01.028-.032a4.293,4.293,0,0,1,.3-.362c.087-.089.173-.176.261-.258a4.419,4.419,0,0,1,4-1.039,39.3,39.3,0,0,0,30.361-70.39Zm-16.984,9.4-.023.008-.017.008c.1-.049.209-.087.313-.134C96.73,65.772,96.639,65.807,96.549,65.849Zm.707-.293a9.338,9.338,0,0,1,4.506-.521A9.358,9.358,0,0,0,97.256,65.556Zm7.964,16.775c-.107.064-.218.119-.325.176.112-.059.226-.117.338-.181Zm.4-.251c-.04.027-.08.055-.122.082l-.023.015c.055-.037.109-.075.164-.111Z" transform="translate(-18642.008 -9249.98)" fill="#0b777e"/>
    <path id="Tracé_285" data-name="Tracé 285" d="M94.318,104.6a32.575,32.575,0,1,1-6.989-45.536A32.578,32.578,0,0,1,94.318,104.6Z" transform="translate(-18619.117 -9246.934)" fill="#fff" opacity="0.15"/>
    <path id="Tracé_286" data-name="Tracé 286" d="M109.27,53.444,8.578,190.658l3.019-.811.874-.235.809-.218,3.117-.839c2.087-.539,3.933-1.01,5.061-1.3l1.161-.295-.37-2.357,0-.017.544-.08,2.183-.342v0l-.005-.027-.425-2.7.27-.044,2.741-.429,2.937-4.025-.833-5.315.585.228-.645-.61-.04-.258,0,0h0l-.007.007.008-.013v.005l.348-.482h0l2.945-.457,3.007-.469h0l0,0,.951-1.3v0h0l-.181-.367-1.746-3.56,5.888-8.066.005-.008,5.895-1.521,9-12.341-1.921-3.925.757-1.035,5.126-.471,1.357-1.851,3.479-.794,3.987-.913v0h0l4.474-6.156,1.22-1.679.007.007a.634.634,0,0,1,.054-.121l.005-.01.028-.032a4.29,4.29,0,0,1,.3-.362c.087-.089.173-.176.261-.258a4.419,4.419,0,0,1,4-1.039A39.294,39.294,0,0,0,109.27,53.444Zm-8.408,25.813c-.107.064-.218.119-.325.176.112-.059.226-.117.338-.181Zm.4-.251c-.04.027-.08.055-.122.082l-.023.015c.055-.037.109-.075.164-.111Z" transform="translate(-18637.652 -9246.905)" fill="#00505c" opacity="0.34" style="mix-blend-mode: multiply;isolation: isolate"/>
    <path id="Tracé_287" data-name="Tracé 287" d="M72.889,73.088a9.6,9.6,0,1,1-2.06-13.42A9.6,9.6,0,0,1,72.889,73.088Z" transform="translate(-18605.445 -9243.496)" fill="#007d8f"/>
    <path id="Tracé_288" data-name="Tracé 288" d="M121.387,76.813a37.888,37.888,0,0,1-62-18.127" transform="translate(-18602.717 -9242.918)" fill="none" stroke="#d0d2d3" stroke-width="2.515"/>
    <path id="Tracé_289" data-name="Tracé 289" d="M58.927,61.554a37.886,37.886,0,1,1,67.64,29.2" transform="translate(-18602.99 -9262)" fill="none" stroke="#d0d2d3" stroke-width="2.515"/>
    <path id="Tracé_290" data-name="Tracé 290" d="M117.25,67.828A10.678,10.678,0,1,1,106.57,57.152,10.679,10.679,0,0,1,117.25,67.828Z" transform="translate(-18577.83 -9243.936)" fill="none" stroke="#d0d2d3" stroke-width="2.515"/>
  </g>
</svg>
